<svg width="152" height="48" viewBox="0 0 152 48" fill="none" xmlns="http://www.w3.org/2000/svg">
<path d="M18.6573 11.2095C17.0162 12.0339 11.6262 17.4706 9.61176 20.3406C8.98954 21.2195 8.20398 22.845 8.05621 23.5528C7.97065 23.895 7.98621 24.1517 8.07954 24.3383C8.46065 25.1083 13.2051 27.2783 16.5884 28.2506C19.9095 29.1917 22.9817 29.2539 22.9817 28.375C22.9817 28.0483 22.6862 27.4728 22.1962 26.8428C21.714 26.205 21.6906 26.1972 20.8973 26.0417C17.4673 25.4039 15.5073 24.5639 15.5073 23.7394C15.5073 23.5761 15.6784 23.2883 15.8884 23.0628L16.2773 22.6817L16.4717 22.9772C16.8762 23.615 17.4673 24.0583 18.3462 24.3772C19.2484 24.6961 21.0529 25.0539 21.8617 25.0772C22.1106 25.0772 22.4062 25.1161 22.5073 25.1628C22.6084 25.2094 23.0828 25.8006 23.534 26.4772C25.8828 29.9694 27.9206 31.8672 30.5806 33.0728C32.2373 33.8194 32.1984 33.7805 31.2417 33.695C28.8151 33.485 26.7151 32.5439 25.2995 30.9961C24.9962 30.6694 24.6617 30.2572 24.5528 30.0939L24.3584 29.7983L23.4251 30.0317L22.484 30.265V31.525C22.484 33.3605 22.9662 34.4494 24.0862 35.2039C24.5062 35.4839 24.5684 35.5694 24.5062 35.8494C24.444 36.1216 24.5451 36.3161 25.0195 36.9072C25.3384 37.2961 25.6651 37.7083 25.7584 37.7783C25.8673 37.9028 27.2673 37.9416 31.8951 37.9416H37.8995L37.9695 37.6616C38.0784 37.2339 38.055 37.0861 37.8606 37.0861C37.7595 37.0861 37.1606 36.9228 36.5384 36.7205C35.395 36.355 34.9828 36.0828 34.9828 35.7172C34.9828 35.5461 35.0528 35.5305 35.4339 35.6472C36.0717 35.8183 37.775 35.7094 38.2417 35.4605C38.4517 35.3517 38.7239 35.1183 38.8328 34.9472C39.1595 34.4417 39.2139 32.9405 38.965 31.4161C38.8562 30.7083 38.7939 29.9694 38.8328 29.7828C38.9417 29.3394 39.4473 28.8806 39.8284 28.8806H40.1473L40.0617 29.7361C39.9606 30.7161 40.085 30.9572 40.6528 30.9572C41.7184 30.9572 44.2461 29.8994 45.9728 28.7406C46.7739 28.2117 48.485 26.8506 49.395 26.0417C49.605 25.8706 50.2195 25.3183 50.7795 24.8283C51.3317 24.3461 51.7828 23.8872 51.7828 23.8017C51.7828 23.4128 50.3517 21.8261 47.3184 18.8861C43.8495 15.5261 43.445 15.1839 42.6128 14.865C41.8117 14.5461 41.1895 14.5928 40.8861 14.9739C40.295 15.7206 40.6528 16.0628 41.9128 15.9695C42.4184 15.9306 43.0406 15.9539 43.2895 16.0317C44.3084 16.3039 45.7628 18.3572 46.8439 21.0328C47.6295 22.9694 47.5284 23.7317 46.4628 23.7317C45.7395 23.7317 44.5417 24.1983 43.795 24.7739C43.4061 25.0772 42.9473 25.3494 42.7917 25.3961C42.5973 25.4428 42.0684 25.3261 41.345 25.0772C40.4039 24.7506 40.0073 24.6728 39.0428 24.6572C38.405 24.6572 37.5339 24.6961 37.1217 24.7428C36.3984 24.8439 36.3517 24.8283 35.9317 24.4628C35.4495 24.035 34.9984 22.9928 34.9984 22.3161C34.9984 22.0828 35.0217 21.8883 35.0606 21.8883C35.0839 21.8883 35.4028 22.075 35.7606 22.2928C37.6817 23.5061 38.1717 23.2261 38.4439 20.7217C38.6773 18.5361 38.4284 16.4828 37.8062 15.2461C37.4639 14.585 36.5306 13.5895 35.955 13.2939C35.1228 12.8661 34.6095 12.975 33.5439 13.7761L33.1628 14.0561C33.1628 14.0561 33.1006 13.0917 32.0739 12.1039C31.7006 11.7461 30.9073 11.5361 30.3784 11.6217C29.2351 11.8084 28.294 12.6172 27.6484 13.9706C26.9717 15.3472 26.7695 16.4439 26.8162 18.2017C26.8551 19.4772 26.8862 19.6795 27.2206 20.3483C27.4306 20.7372 27.734 21.1806 27.9051 21.305C28.3717 21.6317 29.1262 21.7095 29.7328 21.4683C30.0051 21.3595 30.2695 21.2739 30.3239 21.2739C30.3706 21.2817 30.0284 21.6395 29.5539 22.075C28.9784 22.5961 28.7528 22.9694 28.8773 23.2028C29.0017 23.4206 29.4451 23.7394 30.0984 24.0972C31.0551 24.6106 32.5484 25.8161 32.5484 26.0728C32.5484 26.2439 31.9573 26.0728 31.0784 25.6294C30.6351 25.4117 30.0206 25.1394 29.7173 25.0306C29.2973 24.8672 28.9084 24.5483 28.2395 23.8172C26.7617 22.1839 26.054 21.9272 23.8528 22.1995L23.0517 22.285L22.2895 21.7328C21.224 20.9317 20.6562 20.675 19.7151 20.5428C19.0929 20.4572 18.6729 20.4728 18.0817 20.5895C17.6384 20.6906 17.234 20.7139 17.1795 20.6595C17.1329 20.5972 17.1095 19.345 17.1406 17.875C17.2262 14.2195 17.6229 12.5784 18.4862 12.2595C18.8051 12.1584 18.8751 12.1972 19.4662 12.835C20.4929 13.955 21.2395 14.095 22.0173 13.325C22.9817 12.345 22.7562 11.6917 21.2551 11.2561C20.1273 10.9295 19.2717 10.9139 18.6573 11.2172H18.6651L18.6573 11.2095Z" fill="#000AE7"/>
<path d="M134.441 17.5612C132.994 18.6423 131.143 20.0034 130.35 20.579L128.88 21.6445L130.498 21.6834C131.929 21.7067 132.116 21.7456 132.116 21.9323C132.116 22.0412 131.734 23.6279 131.268 25.4479C130.412 28.8701 130.21 29.3834 129.378 30.2545C129.168 30.4723 129.036 30.659 129.082 30.659C129.129 30.659 130.482 29.7023 132.084 28.5278L134.986 26.3967L135.452 24.5223C135.693 23.4801 135.966 22.4301 136.036 22.1734L136.16 21.7223H140.788L140.912 21.2556C141.184 20.2912 141.534 18.9068 141.534 18.8445C141.534 18.8056 140.064 18.7745 138.26 18.759L134.978 18.7201L135.001 18.3779C135.024 17.9968 135.561 17.289 136.541 16.3168C136.876 15.9901 137.132 15.6945 137.109 15.6712C137.086 15.6634 135.872 16.519 134.426 17.5845L134.441 17.5612Z" fill="#000AE7"/>
<path d="M120.519 18.059C120.247 18.2768 119.049 19.1634 117.859 20.0423C116.669 20.9134 115.689 21.6601 115.689 21.699C115.689 21.7379 116.389 21.7456 117.244 21.7379L118.8 21.7145L119.018 20.9523C119.274 20.0501 119.803 19.1401 120.534 18.3468C120.838 18.0279 121.071 17.7323 121.048 17.7245C121.024 17.7012 120.783 17.849 120.511 18.0668L120.519 18.059Z" fill="#000AE7"/>
<path d="M126.593 18.7123C125.823 19.3034 124.252 20.4545 123.117 21.2867L121.032 22.7956L120.27 25.8601C119.85 27.5401 119.399 29.1578 119.251 29.4534C119.119 29.749 118.629 30.4178 118.17 30.9623C117.252 32.0512 117.314 32.0278 119.236 30.6045C119.881 30.1223 121.188 29.1578 122.137 28.4578L123.863 27.1823L124.563 24.4212C125.372 21.1779 125.567 20.7423 127.099 18.9456C127.698 18.2379 128.141 17.6623 128.094 17.6623C128.048 17.6623 127.356 18.1445 126.586 18.7201L126.593 18.7123Z" fill="#000AE7"/>
<path d="M108.891 18.9068C108.728 19.3734 106.861 27.1279 106.892 27.2134C106.916 27.2756 107.343 27.019 107.849 26.6379C108.354 26.2723 109.42 25.4945 110.198 24.919L111.629 23.8612L111.847 22.959C112.127 21.7223 112.204 21.6445 112.904 21.7456C113.589 21.8545 113.643 22.049 113.153 22.6012C112.733 23.0523 112.85 22.9823 114.67 21.6445C115.393 21.1079 116.521 20.2834 117.159 19.8168C117.797 19.3345 118.372 18.9145 118.434 18.8601C118.504 18.7979 116.428 18.7512 113.752 18.7512C110.011 18.7512 108.922 18.7901 108.883 18.899L108.891 18.9068Z" fill="#000AE7"/>
<path d="M121.989 18.969C121.569 20.2212 121.032 21.0379 119.586 22.6945C119.197 23.1456 118.878 23.5501 118.878 23.589C118.878 23.6356 119.088 23.519 119.344 23.3167C119.593 23.1223 120.962 22.119 122.37 21.0845C123.793 20.0423 125.077 19.1012 125.24 18.9768C125.52 18.759 125.497 18.759 123.793 18.759C122.253 18.759 122.051 18.7823 121.989 18.969Z" fill="#000AE7"/>
<path d="M128.18 19.2101C127.853 20.2679 127.161 21.2945 125.854 22.7256C125.154 23.4956 125.108 23.7056 125.753 23.2156C125.987 23.0445 127.223 22.1345 128.499 21.1934C129.782 20.2523 131.05 19.319 131.307 19.1245L131.797 18.759H128.343L128.18 19.2101Z" fill="#000AE7"/>
<path d="M108.378 27.0112C106.846 28.1545 105.205 29.3523 104.722 29.6945C104.256 30.0367 103.999 30.2701 104.17 30.2234C104.979 29.9901 105.617 29.8812 105.803 29.9512C106.099 30.0601 106.06 30.4567 105.593 32.3001L105.205 33.8945L105.796 33.9334C106.387 33.9723 106.418 33.9412 108.44 32.479C110.968 30.6278 110.906 30.6745 110.447 30.7523C110.252 30.7756 110.058 30.7523 110.019 30.6901C109.98 30.6434 110.105 30.029 110.276 29.329L110.579 28.0767H113.558C115.642 28.0767 116.56 28.0378 116.622 27.9445C116.723 27.7812 117.408 25.0979 117.369 25.0512C117.346 25.0434 115.946 25.0123 114.258 24.989L111.17 24.9501L108.378 27.0112Z" fill="#000AE7"/>
<path d="M136.144 26.3967C135.382 26.9723 130.778 30.3556 129.93 30.9701C129.883 31.009 129.183 33.7156 129.168 33.8634C129.168 33.9256 130.054 33.9645 131.128 33.9645H133.08L133.212 33.4978C133.282 33.249 133.554 32.1834 133.827 31.1567C134.363 29.0723 134.566 28.6678 135.631 27.4156C136.65 26.2256 136.93 25.8756 136.883 25.8756C136.86 25.8912 136.526 26.1245 136.144 26.4045V26.3967Z" fill="#000AE7"/>
<path d="M124.696 27.3301C124.353 27.5867 122.93 28.6445 121.53 29.6712C120.122 30.7134 118.932 31.6467 118.87 31.7556C118.823 31.8567 118.676 32.3078 118.567 32.7356C118.458 33.179 118.349 33.6301 118.31 33.739C118.248 33.949 118.396 33.9567 120.247 33.9567H122.246L122.588 32.4478C123.249 29.5701 123.397 29.2356 124.672 27.789C125.077 27.3378 125.38 26.9334 125.349 26.9101C125.326 26.8867 125.03 27.0734 124.703 27.3301H124.696Z" fill="#000AE7"/>
<path d="M107.258 34.0656C106.091 34.9367 105.103 35.6834 105.049 35.7301C105.002 35.7767 105.492 35.5434 106.13 35.2012C106.768 34.8589 107.724 34.4389 108.238 34.2601L109.179 33.9334L109.311 33.2567C109.397 32.8912 109.436 32.5723 109.412 32.549C109.389 32.5256 108.417 33.2101 107.258 34.0656Z" fill="#000AE7"/>
<path d="M87.6268 17.3512C85.5034 18.5412 84.7801 18.759 82.8823 18.8445L81.389 18.9145L79.6934 21.6134C78.7601 23.0912 77.7334 24.6312 77.3912 24.9967C77.0646 25.3779 76.9012 25.5956 77.049 25.5023C77.3757 25.2767 83.3568 20.8979 86.569 18.5179C87.8445 17.5768 89.0112 16.729 89.1434 16.6279C89.6801 16.2468 89.2134 16.4645 87.6268 17.3512Z" fill="black"/>
<path d="M86.989 32.899C86.989 32.899 86.8645 32.479 86.8179 32.0278C86.7168 31.1101 86.8568 30.5967 87.3701 29.9045L87.689 29.4767L87.3234 29.7101C86.9968 29.9201 84.7879 31.5378 80.5179 34.6567C79.7479 35.2323 79.1723 35.6756 79.2346 35.6523C79.3046 35.6289 80.0434 35.2634 80.8912 34.8434C81.739 34.4234 82.719 34.0345 83.0768 33.9645C83.8623 33.8012 85.6745 33.7778 85.6745 33.9412C85.6745 34.0034 85.2545 34.3301 84.7568 34.6801C83.6679 35.4423 83.4734 35.6756 84.2745 35.2712C85.8768 34.4623 87.7434 34.0734 90.4501 33.9723L92.4568 33.9023L93.0323 31.5767C93.3512 30.2934 93.6467 29.0878 93.6779 28.8934C93.7167 28.7067 93.9579 28.3567 94.2067 28.1312L94.6579 27.7112H96.9601C98.2201 27.7112 99.2623 27.7345 99.2623 27.7578C99.2623 27.7812 98.9356 29.1656 98.5234 30.8223C98.119 32.4867 97.7845 33.8712 97.7845 33.9023C97.7845 33.9412 98.6634 33.9645 99.7367 33.9645H101.689L103.066 28.4112C103.828 25.3701 104.52 22.6556 104.637 22.3834C105.088 21.1934 106.402 19.4434 107.896 17.9968C108.432 17.4834 108.852 17.0556 108.829 17.0556C108.79 17.0556 107.748 17.8023 106.503 18.7123C101.751 22.189 100.375 23.239 100.375 23.3712C100.375 23.4412 100.289 23.799 100.188 24.1412L99.9934 24.779H98.2667L94.2145 27.7423C87.7279 32.5101 87.0823 32.9612 86.9968 32.9145L86.989 32.899Z" fill="black"/>
<path d="M96.0812 18.9768C96.0812 18.7823 95.9179 18.7512 94.1912 18.7512C93.149 18.7512 92.2701 18.7901 92.239 18.8368C92.1379 19.0079 89.3223 30.4334 89.369 30.4645C89.3923 30.4878 91.4145 29.0334 93.8801 27.229C96.3301 25.4245 98.5856 23.7756 98.889 23.5501C103.167 20.4001 104.645 19.3112 104.956 19.0623L105.321 18.759H103.408L101.51 18.7434L101.316 19.3579C100.717 21.2323 99.3323 23.0134 97.5667 24.1645C96.8045 24.6701 96.6956 24.6934 95.739 24.7401C95.1712 24.7556 94.7201 24.7401 94.7201 24.7012C94.7201 24.6545 95.0234 23.3867 95.3967 21.8934C95.7623 20.4001 96.0734 19.0701 96.0734 18.969L96.0812 18.9768Z" fill="black"/>
<path d="M60.1012 25.5023C60.2024 25.4012 60.529 20.9445 60.5446 19.5212V18.8834H58.6546C56.8035 18.8834 56.7646 18.8834 56.6946 19.1556C56.6557 19.319 56.6246 20.0734 56.6246 20.859C56.6246 21.6445 56.5857 23.2856 56.539 24.5223L56.469 26.7545L56.0179 27.3534C55.4813 28.0767 54.999 28.6134 53.949 29.7178C53.0935 30.6123 53.1246 30.6512 54.1201 29.9123C54.4624 29.6556 55.9246 28.5901 57.3635 27.5245C58.8101 26.4667 60.0468 25.549 60.109 25.5023H60.1012Z" fill="black"/>
<path d="M67.6457 19.9568V18.8756H64.2779L63.9746 19.5134C63.8112 19.8712 63.2512 21.069 62.7224 22.1734C62.1935 23.2779 61.7812 24.1956 61.789 24.2034C61.8279 24.2423 62.2324 23.9467 65.6623 21.419L67.6457 19.949V19.9568Z" fill="black"/>
<path d="M70.0723 29.4301C70.3446 29.2434 70.6246 28.839 70.9201 28.209C71.1535 27.6956 71.6668 26.5912 72.0635 25.7434C72.4523 24.8956 73.3234 23.0212 74.0157 21.5745C74.7001 20.1279 75.2523 18.9301 75.2523 18.9145C75.2523 18.8912 74.3812 18.8756 73.3157 18.8756H71.3635L70.6557 20.4934C69.209 23.7756 68.9057 24.4912 68.2523 25.9845L67.5912 27.5167L67.5523 24.8801C67.529 22.3056 67.529 22.2434 67.8246 21.6445C67.9957 21.3023 68.5012 20.6179 68.9446 20.1279C69.3957 19.6456 69.7301 19.249 69.6912 19.249C69.6523 19.249 67.9723 20.4468 65.9657 21.9167C63.9668 23.3867 62.069 24.7712 61.7501 24.9967C61.2835 25.339 61.1046 25.5879 60.6846 26.4901C60.4124 27.089 60.1557 27.579 60.1168 27.579C60.0779 27.579 60.0935 27.2756 60.1324 26.879C60.2024 26.3034 60.1946 26.2023 60.0468 26.2879C59.8757 26.3967 58.7868 27.1823 57.2157 28.3334L56.4068 28.9323L56.3601 31.3434C56.3368 32.6656 56.3368 33.7934 56.3601 33.8478C56.4068 33.9723 60.0857 33.9723 60.2568 33.8478C60.319 33.8012 60.5524 33.4045 60.7624 32.969C60.9724 32.5256 61.8435 30.7601 62.6835 29.049L64.2157 25.9223V29.609L64.2312 33.2956L63.9124 33.5912C63.7412 33.7545 63.5468 33.9801 63.469 34.1201C63.2824 34.4467 62.9168 34.7112 67.7857 31.1178C68.8279 30.3478 69.8701 29.5856 70.0879 29.4223L70.0723 29.4301Z" fill="black"/>
<path d="M72.989 29.609C74.3657 28.9867 74.6301 28.9323 74.6301 29.3056C74.6301 29.6323 74.4668 29.9434 73.3079 31.7712C72.779 32.6034 72.2812 33.4278 72.1879 33.5756L72.0401 33.8478H76.209L76.9557 32.5023L77.7179 31.1567H82.6179L82.5479 31.4756C82.5012 31.6623 82.2679 32.0978 82.0345 32.4712C81.8012 32.8367 81.6768 33.0934 81.7623 33.0467C81.9334 32.9456 85.3634 30.4412 87.0668 29.1578C87.6034 28.7534 87.9379 28.4734 87.8056 28.5201C87.6734 28.5823 87.3623 28.6445 87.129 28.6678C86.4834 28.7534 86.3279 28.4967 86.1101 26.8634C86.009 26.0934 85.7679 24.3123 85.5812 22.9045C85.3868 21.4579 85.1768 20.369 85.099 20.3768C85.0368 20.3768 84.6712 20.6101 84.2979 20.8901C83.9168 21.1701 82.2679 22.399 80.619 23.5967C76.5512 26.5756 72.0012 29.9278 71.869 30.0523C71.8068 30.1145 72.2968 29.9201 72.9734 29.609H72.989ZM80.0045 27.2056C80.2534 26.7545 80.8134 25.7512 81.2568 24.9734C81.6845 24.1879 82.0657 23.5656 82.0812 23.589C82.1045 23.6123 82.2057 24.6156 82.2912 25.8212C82.3768 27.0345 82.439 28.0534 82.4001 28.1001C82.3768 28.1623 81.7157 28.2012 80.9457 28.2012C80.1757 28.2012 79.5457 28.1623 79.5457 28.1001C79.5457 28.0534 79.7557 27.649 80.0123 27.2056H80.0045Z" fill="black"/>
<path d="M70.6401 30.1845C70.9668 29.8423 71.1923 29.5467 71.1301 29.5623C71.0679 29.5623 69.7534 30.5034 68.2057 31.6467C66.6657 32.7978 65.3746 33.7778 65.3512 33.8556C65.3046 33.9878 68.019 34.0034 68.2057 33.8634C68.2757 33.8167 68.5246 33.3578 68.7501 32.8601C69.1701 31.919 69.5823 31.3278 70.6479 30.1923L70.6401 30.1845Z" fill="black"/>
<path d="M142.546 14.2945C142.522 14.2245 142.491 14.1779 142.452 14.1312C142.413 14.0923 142.359 14.0612 142.297 14.0301C142.234 14.0068 142.157 13.9912 142.056 13.9912H141.153V16.6434H141.744V15.4379C141.791 15.4379 141.822 15.4379 141.838 15.4379C141.861 15.4379 141.884 15.4456 141.908 15.4612C141.931 15.4768 141.947 15.4923 141.954 15.5156C141.962 15.539 141.97 15.5779 141.97 15.6168V16.6512H142.546C142.546 16.4256 142.546 16.0912 142.546 15.6556C142.546 15.6168 142.546 15.5779 142.538 15.539C142.538 15.5001 142.522 15.469 142.507 15.4301C142.491 15.3912 142.468 15.3601 142.429 15.329C142.39 15.2979 142.351 15.2823 142.297 15.2745C142.351 15.259 142.398 15.2356 142.437 15.2045C142.476 15.1734 142.507 15.1423 142.522 15.1112C142.538 15.0801 142.553 15.0412 142.569 14.9945C142.577 14.9479 142.584 14.909 142.584 14.8779V14.7534C142.584 14.6601 142.584 14.5745 142.577 14.5045C142.577 14.4345 142.553 14.3723 142.53 14.3023L142.546 14.2945ZM141.76 14.4968H141.791C141.884 14.4968 141.947 14.5123 141.978 14.5434C142.009 14.5745 142.024 14.6445 142.024 14.7534C142.024 14.9168 141.986 14.9945 141.908 14.9945H141.76V14.4968Z" fill="black"/>
<path d="M141.884 13.2057C140.718 13.2057 139.769 14.1545 139.769 15.3212C139.769 16.4879 140.718 17.4368 141.884 17.4368C143.051 17.4368 144 16.4879 144 15.3212C144 14.1545 143.051 13.2057 141.884 13.2057ZM141.884 17.149C140.873 17.149 140.057 16.3323 140.057 15.3212C140.057 14.3101 140.873 13.4934 141.884 13.4934C142.896 13.4934 143.712 14.3101 143.712 15.3212C143.712 16.3323 142.896 17.149 141.884 17.149Z" fill="black"/>
</svg>
