<svg width="152" height="48" viewBox="0 0 152 48" fill="none" xmlns="http://www.w3.org/2000/svg">
<path d="M34.1018 22.9656V13.3148C34.1018 13.1415 33.9604 13 33.787 13H26.1866C27.0931 14.264 27.5813 15.7804 27.5813 17.3348V22.1731C28.7966 22.3754 34.1018 22.9656 34.1018 22.9656Z" fill="#000D42"/>
<path d="M27.5813 25.2334V28.9796C27.5813 29.1439 27.3684 29.2108 27.2756 29.0739L25.0565 25.8387C24.6869 25.9741 24.3705 26.1262 24.1043 26.3011C23.2936 26.8335 22.8282 27.6122 22.3947 29.372L24.2047 32.0125C25.2329 33.5137 26.9364 34.4111 28.7555 34.4111H33.787C33.9604 34.4111 34.1018 34.2696 34.1018 34.0962V24.2995C34.1018 24.2995 28.7981 25.0326 27.5813 25.2334Z" fill="#000D42"/>
<path d="M8 24.4455V34.0962C8 34.2696 8.14145 34.4111 8.31485 34.4111H15.9153C15.0088 33.1471 14.5205 31.6307 14.5205 30.0762V25.2379C13.3052 25.0357 8 24.4455 8 24.4455Z" fill="#000D42"/>
<path d="M14.5205 22.1777V18.4315C14.5205 18.2672 14.7335 18.2003 14.8262 18.3372L17.0454 21.5723C17.415 21.437 17.7313 21.2849 17.9975 21.11C18.8082 20.5776 19.2736 19.7989 19.7071 18.0391L17.8971 15.3986C16.8689 13.8974 15.1654 13 13.3463 13H8.31485C8.14146 13 8.00001 13.1415 8.00001 13.3148V23.1116C8.00001 23.1116 13.3037 22.3785 14.5205 22.1777Z" fill="#000D42"/>
<path d="M27.5813 23.1587C22.7065 22.3739 21.9369 21.186 21.0502 16.3629C20.8524 17.4413 20.6593 18.3387 20.4281 19.0901C19.8957 20.8118 19.1489 21.7701 17.6112 22.3967C16.8172 22.7207 15.8134 22.9565 14.519 23.1633C13.3326 23.3534 11.9059 23.5192 10.172 23.7063C11.9044 23.8964 13.3326 24.0622 14.519 24.2539C19.3938 25.0387 20.1634 26.2266 21.0502 31.0497C21.2479 29.9713 21.4411 29.0739 21.6723 28.3225C22.2046 26.6008 22.9514 25.6425 24.4891 25.0159C25.2831 24.6919 26.287 24.4562 27.5813 24.2493C28.7677 24.0592 30.1944 23.8934 31.9283 23.7063C30.1959 23.5162 28.7677 23.3504 27.5813 23.1587Z" fill="#6C00FF"/>
<path d="M50.9469 15.569L57.6149 31.6155H53.2679L52.6763 30.9326C51.8869 30.0382 51.2237 29.3127 50.6853 28.7591C50.1468 28.2054 49.5506 27.7309 48.8981 27.3369C48.2456 26.943 47.5931 26.7453 46.9406 26.7453C46.425 26.7453 46.0219 26.8669 45.7344 27.1088C45.4454 27.3521 45.2112 27.7233 45.0287 28.2237L43.6856 31.6155H39.3386L46.0067 15.569H50.9469ZM49.3209 24.7634C50.0723 25.4463 50.8343 26.3118 51.6085 27.3582L48.4677 19.3699L46.8965 23.3991C47.7619 23.6272 48.5696 24.082 49.3209 24.7649V24.7634Z" fill="#6C00FF"/>
<path d="M58.526 15.569H62.7133V31.6155H58.526V15.569Z" fill="#6C00FF"/>
<path d="M66.061 25.3551C67.6839 24.733 69.9305 24.4212 72.7975 24.4212H74.0721C74.1026 24.1793 74.1178 24.012 74.1178 23.9208C74.1178 23.2987 73.9429 22.8089 73.5945 22.453C73.2447 22.0971 72.8128 21.9176 72.2971 21.9176C71.9336 21.9176 71.5686 22.0195 71.2051 22.2249C70.8415 22.4302 70.5297 22.7374 70.2712 23.1466H66.0154C66.5158 21.8111 67.3128 20.9122 68.4049 20.4498C69.497 19.9875 70.84 19.7563 72.434 19.7563C74.679 19.7563 76.273 20.2384 77.213 21.2012C78.153 22.1655 78.6245 23.6485 78.6245 25.6501V31.614H74.4372V28.4503C73.8911 29.5424 73.0789 30.3698 72.0021 30.931C70.9252 31.4923 69.7784 31.7737 68.5646 31.7737C67.6839 31.7737 66.8687 31.6368 66.1173 31.3645C65.3659 31.0907 64.7636 30.6892 64.3073 30.1584C63.8526 29.6275 63.6244 28.9979 63.6244 28.2693C63.6244 26.9491 64.4366 25.9787 66.0595 25.3566L66.061 25.3551ZM71.637 26.9263C70.332 26.9263 69.3692 27.0099 68.7471 27.1772C68.125 27.3445 67.8132 27.6472 67.8132 28.0883C67.8132 28.4518 68.0186 28.7484 68.4277 28.9766C68.8369 29.2047 69.3449 29.3173 69.9533 29.3173C70.7579 29.3173 71.5458 29.1241 72.3199 28.7362C73.0941 28.3499 73.7162 27.7613 74.1862 26.9719L73.412 26.9491C72.9877 26.9339 72.396 26.9263 71.637 26.9263Z" fill="#6C00FF"/>
<path d="M79.534 15.569H84.3358L91.7553 26.0836V15.569H95.9426V31.6155H91.1864L83.7214 21.1008V31.6155H79.534V15.569Z" fill="#000D42"/>
<path d="M100.598 31.0573C99.4226 30.5341 98.5039 29.8101 97.8438 28.8838C97.1837 27.959 96.8536 26.911 96.8536 25.7429C96.8536 24.5748 97.1837 23.5283 97.8438 22.6021C98.5039 21.6773 99.4256 20.9518 100.609 20.4286C101.792 19.9053 103.135 19.6437 104.638 19.6437C106.141 19.6437 107.502 19.9053 108.678 20.4286C109.854 20.9518 110.768 21.6773 111.42 22.6021C112.073 23.5283 112.4 24.5748 112.4 25.7429C112.4 26.911 112.065 27.959 111.399 28.8838C110.731 29.8101 109.81 30.5341 108.634 31.0573C107.458 31.5805 106.12 31.8421 104.617 31.8421C103.114 31.8421 101.776 31.5805 100.6 31.0573H100.598ZM107.164 28.3377C107.802 27.7309 108.12 26.911 108.12 25.8798V25.5832C108.12 24.552 107.802 23.7367 107.164 23.1359C106.527 22.5367 105.685 22.237 104.638 22.237C103.592 22.237 102.703 22.5367 102.066 23.1359C101.429 23.7352 101.111 24.5505 101.111 25.5832V25.8798C101.111 26.9263 101.429 27.7506 102.066 28.3499C102.703 28.9492 103.561 29.2488 104.638 29.2488C105.715 29.2488 106.527 28.9461 107.164 28.3377Z" fill="#000D42"/>
<path d="M115.335 19.8475L118.567 27.6548L121.8 19.8475H126.192L120.843 31.614H116.29L110.941 19.8475H115.335Z" fill="#000D42"/>
<path d="M126.032 25.3551C127.655 24.733 129.902 24.4212 132.769 24.4212H134.044C134.074 24.1793 134.089 24.012 134.089 23.9208C134.089 23.2987 133.914 22.8089 133.566 22.453C133.216 22.0971 132.784 21.9176 132.269 21.9176C131.905 21.9176 131.54 22.0195 131.176 22.2249C130.813 22.4302 130.501 22.7374 130.243 23.1466H125.987C126.487 21.8111 127.284 20.9122 128.376 20.4498C129.468 19.9875 130.811 19.7563 132.405 19.7563C134.65 19.7563 136.244 20.2384 137.184 21.2012C138.124 22.1655 138.596 23.6485 138.596 25.6501V31.614H134.409V28.4503C133.863 29.5424 133.05 30.3698 131.973 30.931C130.897 31.4923 129.75 31.7737 128.536 31.7737C127.655 31.7737 126.84 31.6368 126.089 31.3645C125.337 31.0907 124.735 30.6892 124.279 30.1584C123.824 29.6275 123.596 28.9979 123.596 28.2693C123.596 26.9491 124.408 25.9787 126.031 25.3566L126.032 25.3551ZM131.608 26.9263C130.303 26.9263 129.339 27.0099 128.719 27.1772C128.096 27.3445 127.785 27.6472 127.785 28.0883C127.785 28.4518 127.99 28.7484 128.399 28.9766C128.808 29.2047 129.316 29.3173 129.925 29.3173C130.729 29.3173 131.517 29.1241 132.291 28.7362C133.066 28.3499 133.688 27.7613 134.158 26.9719L133.383 26.9491C132.959 26.9339 132.367 26.9263 131.608 26.9263Z" fill="#000D42"/>
<path d="M139.455 15.9766H138.596V15.569H140.797V15.9766H139.937V18.1623H139.455V15.9766Z" fill="#000D42"/>
<path d="M143.542 18.1623L143.539 16.4435L142.687 17.8657H142.473L141.621 16.4648V18.1623H141.162V15.569H141.559L142.589 17.2877L143.6 15.569H143.997L144 18.1623H143.542Z" fill="#000D42"/>
</svg>
