<svg width="152" height="48" viewBox="0 0 152 48" fill="none" xmlns="http://www.w3.org/2000/svg">
<path fill-rule="evenodd" clip-rule="evenodd" d="M24.6332 10H35.0997L24.6332 25.7732V10Z" fill="#114F96"/>
<path fill-rule="evenodd" clip-rule="evenodd" d="M8.1678 10H18.5924L8.1678 25.7732V10Z" fill="#114F96"/>
<path fill-rule="evenodd" clip-rule="evenodd" d="M18.4246 37.1312H8L18.4246 21.358V37.1312Z" fill="#6BA2D4"/>
<path fill-rule="evenodd" clip-rule="evenodd" d="M34.89 37.1312H24.4339L34.89 21.358V37.1312Z" fill="#6BA2D4"/>
<path d="M79.1289 37.023V35.9067H79.7123V36.0147C79.7258 36.0903 79.7552 36.1622 79.7987 36.2255C79.8422 36.2889 79.8987 36.3422 79.9644 36.382C80.1059 36.493 80.2815 36.5516 80.4613 36.5477C80.6362 36.5506 80.8093 36.5111 80.9655 36.4324C81.0242 36.4068 81.0739 36.3645 81.1085 36.3106C81.1431 36.2568 81.161 36.1939 81.16 36.1299C81.165 36.0717 81.1518 36.0133 81.1221 35.963C81.0924 35.9126 81.0477 35.8728 80.9943 35.849C80.7991 35.7651 80.593 35.7093 80.3821 35.6834C80.0404 35.6435 79.7138 35.5198 79.4314 35.3233C79.3349 35.2407 79.2577 35.1379 79.2054 35.0221C79.1531 34.9063 79.127 34.7805 79.1289 34.6535C79.1238 34.5158 79.1512 34.379 79.2087 34.2539C79.2663 34.1287 79.3524 34.0189 79.4602 33.9332C79.6873 33.7469 79.9732 33.6474 80.2669 33.6523C80.5508 33.6502 80.8307 33.7196 81.0807 33.854V33.71H81.6641V34.7975H81.0807V34.603C81.0026 34.4833 80.8958 34.385 80.77 34.317C80.6443 34.2491 80.5035 34.2137 80.3605 34.2141C80.2135 34.2066 80.0677 34.2443 79.9428 34.3222C79.8918 34.3489 79.8492 34.3894 79.82 34.439C79.7907 34.4886 79.7759 34.5454 79.7771 34.603C79.7705 34.6541 79.7802 34.706 79.8048 34.7512C79.8293 34.7965 79.8675 34.8328 79.914 34.8551C80.131 34.9332 80.3554 34.9887 80.5838 35.0208C80.827 35.0611 81.0676 35.1165 81.304 35.1864C81.4643 35.2582 81.5997 35.376 81.6929 35.5249C81.8001 35.6794 81.8578 35.8627 81.8586 36.0507C81.8586 36.1905 81.826 36.3283 81.7635 36.4533C81.701 36.5783 81.6103 36.6871 81.4985 36.7709C81.2367 36.9512 80.9227 37.0398 80.6054 37.023C80.3017 37.0346 80.0012 36.957 79.7411 36.7997V36.9726L79.1289 37.023ZM82.6652 32.6152C82.6677 32.5226 82.7065 32.4346 82.7733 32.3703C82.8077 32.3283 82.8504 32.2939 82.8988 32.2691C82.9471 32.2443 83 32.2298 83.0542 32.2263C83.1576 32.234 83.256 32.2743 83.3351 32.3415C83.3713 32.377 83.3997 32.4197 83.4183 32.4668C83.4369 32.514 83.4454 32.5646 83.4431 32.6152C83.4459 32.667 83.4378 32.7188 83.4192 32.7672C83.4005 32.8156 83.3719 32.8596 83.3351 32.8961C83.2998 32.935 83.2562 32.9655 83.2076 32.9855C83.159 33.0054 83.1066 33.0142 83.0542 33.0113C83.0018 33.0133 82.9497 33.004 82.9013 32.9841C82.8528 32.9642 82.8092 32.9342 82.7733 32.8961C82.7099 32.8154 82.6723 32.7176 82.6652 32.6152ZM82.7301 36.4612V34.3005H82.2043V33.7172H83.3711V36.4468H83.8752V37.0086H82.2331V36.4468L82.7301 36.4612ZM84.2642 37.023V35.9067H84.8908V36.0147C84.9059 36.0897 84.936 36.1609 84.9794 36.224C85.0227 36.2872 85.0783 36.3409 85.1428 36.382C85.2871 36.493 85.465 36.5515 85.647 36.5477C85.8196 36.5506 85.9903 36.511 86.144 36.4324C86.2038 36.4085 86.2547 36.3665 86.2896 36.3123C86.3244 36.2581 86.3415 36.1943 86.3384 36.1299C86.3433 36.0751 86.3332 36.0199 86.3091 35.9704C86.2849 35.921 86.2478 35.879 86.2016 35.849C86.0122 35.7715 85.8137 35.7182 85.611 35.6906C85.2615 35.6554 84.9268 35.5315 84.6387 35.3305C84.5412 35.2483 84.4629 35.1457 84.4094 35.03C84.3559 34.9142 84.3285 34.7882 84.329 34.6607C84.3253 34.5225 84.354 34.3855 84.4128 34.2604C84.4716 34.1353 84.5588 34.0258 84.6675 33.9404C84.9028 33.7487 85.1996 33.6489 85.5029 33.6595C85.7749 33.6619 86.042 33.7312 86.2808 33.8612V33.7172H86.8642V34.8047H86.2808V34.6102C86.1935 34.4844 86.0737 34.3845 85.9343 34.3211C85.7948 34.2577 85.6408 34.2332 85.4885 34.2501C85.3415 34.2426 85.1957 34.2803 85.0708 34.3582C85.0198 34.3849 84.9773 34.4254 84.948 34.475C84.9188 34.5247 84.9039 34.5815 84.9052 34.6391C84.8979 34.6911 84.9082 34.744 84.9342 34.7896C84.9603 34.8352 85.0007 34.8709 85.0492 34.8911C85.2633 34.9704 85.4855 35.026 85.7118 35.0568C85.9552 35.0963 86.1958 35.1517 86.432 35.2224C86.599 35.2834 86.7375 35.404 86.821 35.5609C86.9564 35.7584 87.0116 36 86.9755 36.2368C86.9394 36.4735 86.8146 36.6876 86.6265 36.8358C86.3648 37.016 86.0508 37.1046 85.7334 37.0878C85.4297 37.0994 85.1292 37.0218 84.8691 36.8646V37.0374L84.2642 37.023ZM87.3827 34.3149V33.7316H87.8005V33.2346L88.4415 32.644V33.7316H89.0537V34.3149H88.4919V35.9067C88.4827 36.0673 88.5022 36.2282 88.5495 36.382C88.5495 36.4324 88.6359 36.4612 88.744 36.4612C88.867 36.4732 88.991 36.4534 89.1041 36.4036V36.9942C88.9433 37.045 88.7758 37.0717 88.6071 37.0734C88.4417 37.0822 88.2771 37.0448 88.1318 36.9654C88.0285 36.8745 87.9514 36.7576 87.9085 36.6269C87.864 36.3895 87.8447 36.1481 87.8509 35.9067V34.3149H87.3827ZM92.9861 35.5465H90.2565C90.2993 35.818 90.4251 36.0696 90.6166 36.2668C90.8325 36.4528 91.1094 36.5528 91.3944 36.5477C91.6038 36.5499 91.8104 36.4997 91.9953 36.4015C92.1803 36.3034 92.3377 36.1605 92.4532 35.9859L93.0149 36.238C92.8556 36.528 92.6013 36.7544 92.2947 36.879C92.0112 37.0336 91.6956 37.1199 91.3728 37.131C90.9036 37.1366 90.4491 36.9672 90.098 36.6557C89.9334 36.4912 89.8028 36.2958 89.7137 36.0808C89.6246 35.8657 89.5787 35.6353 89.5787 35.4025C89.5787 35.1697 89.6246 34.9393 89.7137 34.7242C89.8028 34.5092 89.9334 34.3138 90.098 34.1493C90.4158 33.8331 90.8453 33.6546 91.2936 33.6523C91.7358 33.6575 92.161 33.824 92.4892 34.1205C92.6819 34.3053 92.832 34.5299 92.929 34.7787C93.0261 35.0275 93.0677 35.2944 93.051 35.5609L92.9861 35.5465ZM92.3163 35.0712C92.2767 34.8345 92.1572 34.6184 91.9778 34.459C91.8831 34.3658 91.7704 34.2928 91.6466 34.2445C91.5228 34.1962 91.3904 34.1736 91.2576 34.1781C91.011 34.1774 90.7727 34.2671 90.5878 34.4302C90.4165 34.6065 90.3013 34.8295 90.2565 35.0712H92.3163ZM94.0161 36.4612V34.3005H93.5335V33.7172H94.6859V34.1349C95.003 33.8563 95.4027 33.6893 95.8238 33.6595C95.9942 33.654 96.162 33.7026 96.303 33.7984C96.4441 33.8941 96.5511 34.0321 96.6089 34.1925C96.9427 33.8955 97.3604 33.7093 97.8045 33.6595C97.9951 33.6501 98.1824 33.7117 98.3302 33.8324C98.4604 33.9058 98.56 34.0233 98.6111 34.1637C98.6786 34.3704 98.7078 34.5876 98.6976 34.8047V36.4468H99.2521V37.0086H98.0277V34.9271C98.0468 34.7982 98.0468 34.6672 98.0277 34.5382C98.0222 34.4998 98.0092 34.4629 97.9895 34.4295C97.9697 34.3962 97.9435 34.367 97.9125 34.3438C97.8334 34.2844 97.7376 34.2517 97.6388 34.2501C97.2845 34.2808 96.9503 34.4276 96.6881 34.6679V36.4468H97.2427V37.0086H96.0471V34.8479C96.0559 34.6856 96.0288 34.5233 95.9679 34.3726C95.9252 34.326 95.8726 34.2896 95.8141 34.2659C95.7555 34.2423 95.6924 34.2319 95.6294 34.2357C95.28 34.277 94.9512 34.4226 94.6859 34.6535V36.4324H95.2693V36.9942H93.4543V36.4324L94.0161 36.4612ZM102.875 36.4612V37.023H101.759V36.6269C101.627 36.7688 101.468 36.8819 101.291 36.9587C101.113 37.0356 100.922 37.0747 100.729 37.0734C100.444 37.0856 100.165 36.9875 99.9508 36.7997C99.8413 36.7071 99.7541 36.591 99.6955 36.4601C99.6369 36.3292 99.6085 36.1869 99.6122 36.0435C99.6128 35.9038 99.6456 35.7662 99.708 35.6413C99.7705 35.5163 99.861 35.4075 99.9724 35.3233C100.08 35.2087 100.211 35.1181 100.356 35.0573C100.501 34.9965 100.658 34.9669 100.815 34.9704C101.132 34.9692 101.442 35.0674 101.701 35.2512V34.9127C101.7 34.7815 101.683 34.6509 101.65 34.5238C101.599 34.4236 101.522 34.339 101.427 34.2789C101.287 34.215 101.134 34.1853 100.981 34.1925C100.838 34.174 100.694 34.1983 100.566 34.2625C100.437 34.3267 100.331 34.4277 100.26 34.5526L99.6194 34.4158C99.7522 34.1552 99.9611 33.9413 100.218 33.8023C100.476 33.6634 100.769 33.6061 101.06 33.6379C101.279 33.6246 101.498 33.6616 101.701 33.746C101.865 33.7788 102.013 33.868 102.119 33.998C102.199 34.094 102.256 34.2075 102.284 34.3294C102.323 34.5214 102.342 34.7168 102.342 34.9127V36.4468L102.875 36.4612ZM101.672 35.7914C101.432 35.6051 101.14 35.4992 100.837 35.4889C100.677 35.4837 100.52 35.5318 100.39 35.6258C100.327 35.6753 100.277 35.7389 100.243 35.8115C100.209 35.884 100.193 35.9635 100.196 36.0435C100.196 36.1161 100.211 36.1878 100.239 36.2546C100.268 36.3214 100.309 36.3818 100.361 36.4324C100.484 36.5245 100.633 36.5749 100.786 36.5765C100.952 36.5748 101.117 36.5395 101.269 36.4726C101.421 36.4058 101.558 36.3088 101.672 36.1875V35.7914ZM103.235 37.023V35.9067H103.818V36.0147C103.834 36.0897 103.864 36.1609 103.907 36.224C103.95 36.2872 104.006 36.3409 104.07 36.382C104.212 36.493 104.388 36.5516 104.567 36.5477C104.742 36.5506 104.915 36.5111 105.072 36.4324C105.13 36.4068 105.18 36.3645 105.215 36.3106C105.249 36.2568 105.267 36.1939 105.266 36.1299C105.271 36.0717 105.258 36.0133 105.228 35.963C105.198 35.9126 105.154 35.8728 105.1 35.849C104.905 35.7651 104.699 35.7093 104.488 35.6834C104.146 35.6435 103.82 35.5198 103.537 35.3233C103.441 35.2407 103.364 35.1379 103.311 35.0221C103.259 34.9063 103.233 34.7805 103.235 34.6535C103.23 34.5158 103.257 34.379 103.315 34.2539C103.372 34.1287 103.459 34.0189 103.566 33.9332C103.793 33.7469 104.079 33.6474 104.373 33.6523C104.657 33.6502 104.937 33.7196 105.187 33.854V33.71H105.777V34.7975H105.194V34.603C105.116 34.4833 105.009 34.385 104.883 34.317C104.758 34.2491 104.617 34.2137 104.474 34.2141C104.327 34.2066 104.181 34.2443 104.056 34.3222C104.005 34.3489 103.963 34.3894 103.933 34.439C103.904 34.4886 103.889 34.5454 103.89 34.603C103.884 34.6541 103.893 34.706 103.918 34.7512C103.943 34.7965 103.981 34.8328 104.027 34.8551C104.244 34.9332 104.469 34.9887 104.697 35.0208C104.94 35.0611 105.181 35.1165 105.417 35.1864C105.583 35.2502 105.72 35.37 105.806 35.5249C105.913 35.6794 105.971 35.8627 105.972 36.0507C105.973 36.1907 105.941 36.3289 105.878 36.4541C105.816 36.5793 105.724 36.6879 105.612 36.7709C105.35 36.9512 105.036 37.0398 104.719 37.023C104.415 37.0346 104.114 36.957 103.854 36.7997V36.9726L103.235 37.023Z" fill="#114F96"/>
<path fill-rule="evenodd" clip-rule="evenodd" d="M76.1616 37.0446H73.792L76.1616 33.4795V37.0446Z" fill="#6BA2D4"/>
<path fill-rule="evenodd" clip-rule="evenodd" d="M111.172 37.0446H108.831L111.172 33.4795V37.0446Z" fill="#6BA2D4"/>
<path d="M43.9889 26.8534V12.4488H41.677V10H48.2815L53.3231 23.173L58.4223 10H65.0772V12.4272H62.7869V26.8318H65.0988V29.2301H57.8605V26.8534H60.1725V12.4488L53.5175 29.4462H52.9558L46.3873 12.4272V26.8318H48.5048V29.2301H41.677V26.8534H43.9889ZM71.5089 29.3022L69.9244 33.2346H67.3027V35.5465H71.7322L78.3583 18.4699H80.3677V16.1292H73.8856V18.4699H75.6646L72.8197 25.8811L69.9388 18.4699H71.5233V16.1292H64.9044V18.4699H67.1083L71.5089 29.2733V29.3022ZM84.293 27.1847V18.4699H82.0963V16.1292H86.9146V17.8289C88.2122 16.6847 89.8608 16.0166 91.5889 15.9347C92.2728 15.8937 92.9515 16.075 93.524 16.4514C94.0964 16.8278 94.5317 17.3792 94.7651 18.0234C96.4936 16.6357 98.1094 15.9395 99.6122 15.9347C100.376 15.8947 101.133 16.0991 101.773 16.5181C102.306 16.856 102.709 17.3634 102.918 17.9585C103.137 18.8045 103.23 19.6783 103.192 20.5514V27.1775H105.533V29.5182H100.563V21.0339C100.572 20.4819 100.533 19.93 100.448 19.3846C100.377 19.0682 100.189 18.7902 99.9219 18.6067C99.637 18.3831 99.2829 18.266 98.9208 18.2754C97.7757 18.2754 96.4936 18.8588 95.0748 20.004V27.2063H97.3579V29.547H92.4532V20.7818C92.5105 20.1293 92.3859 19.4736 92.093 18.8876C91.948 18.679 91.7503 18.5126 91.5201 18.405C91.2899 18.2975 91.0353 18.2528 90.7822 18.2754C89.8099 18.2754 88.5279 18.8588 86.9434 20.004V27.2063H89.3058V29.547H81.9234V27.1847H84.293ZM105.965 18.4699V16.1292H107.693V14.0837L110.336 11.6853V16.1436H112.814V18.4843H110.336V24.9664C110.296 25.612 110.352 26.2601 110.502 26.8894C110.617 27.1343 110.92 27.2495 111.366 27.2495C111.86 27.2529 112.35 27.1574 112.807 26.9686V29.367C112.157 29.6082 111.469 29.7302 110.776 29.7271C110.089 29.764 109.408 29.5824 108.831 29.2085C108.369 28.887 108.035 28.4126 107.888 27.8689C107.734 26.9578 107.669 26.034 107.693 25.1104V18.4699H105.965ZM128.861 23.5115H117.582C117.695 24.6442 118.206 25.7004 119.022 26.4933C119.439 26.8843 119.93 27.1888 120.465 27.3891C121 27.5893 121.57 27.6814 122.141 27.66C122.99 27.6774 123.829 27.483 124.583 27.0944C125.338 26.7059 125.984 26.1354 126.462 25.4345L128.803 26.4644C128.074 27.5871 127.053 28.4907 125.85 29.0789C124.682 29.6277 123.41 29.9176 122.119 29.9288C120.185 29.9749 118.304 29.288 116.855 28.0057C116.133 27.3627 115.565 26.5665 115.191 25.6755C114.817 24.7845 114.647 23.8212 114.694 22.8561C114.666 21.9132 114.84 20.9753 115.206 20.1056C115.571 19.2359 116.118 18.4546 116.811 17.8145C118.109 16.5308 119.862 15.8112 121.687 15.8123C123.509 15.8167 125.262 16.5116 126.592 17.7569C128.033 19.0389 128.818 20.9907 128.875 23.5547L128.861 23.5115ZM126.131 21.5885C125.932 20.6037 125.428 19.7066 124.691 19.0245C123.902 18.2783 122.852 17.8699 121.767 17.8865C120.768 17.873 119.802 18.2414 119.066 18.9164C118.309 19.6184 117.825 20.5646 117.697 21.5885H126.131ZM143.597 16.1292V21.1708H141.227C141.196 20.7384 141.077 20.317 140.876 19.9329C140.676 19.5487 140.398 19.2101 140.06 18.938C139.387 18.4283 138.564 18.1549 137.72 18.1602C137.177 18.1441 136.637 18.248 136.139 18.4646C135.641 18.6813 135.197 19.0053 134.839 19.4134C134.078 20.3455 133.686 21.5244 133.737 22.7265C133.716 23.926 134.088 25.0996 134.795 26.0683C135.14 26.5428 135.598 26.9232 136.128 27.1748C136.658 27.4265 137.242 27.5413 137.828 27.5088C138.686 27.5448 139.535 27.3114 140.254 26.8413C140.973 26.3712 141.528 25.6879 141.839 24.8871L144 25.8883C143.514 27.1386 142.644 28.203 141.516 28.9288C140.388 29.6547 139.059 30.0047 137.72 29.9288C136.779 29.9764 135.839 29.8062 134.975 29.4315C134.11 29.0567 133.344 28.4875 132.736 27.7681C131.52 26.3723 130.864 24.5768 130.892 22.7265C130.864 21.8008 131.027 20.8793 131.373 20.0202C131.719 19.1611 132.239 18.3831 132.901 17.7353C133.49 17.1154 134.198 16.6214 134.983 16.2834C135.767 15.9454 136.613 15.7704 137.468 15.769C138.838 15.7276 140.176 16.1916 141.227 17.0727V16.1292H143.597Z" fill="#114F96"/>
</svg>
