<svg width="173" height="65" viewBox="0 0 173 65" fill="none" xmlns="http://www.w3.org/2000/svg">
<path d="M81.3785 46.5136V2.94561H94.4245C97.8362 2.94561 100.362 3.69924 102.001 5.20141C103.641 6.70867 104.461 9.27509 104.461 12.9007V14.7898C104.461 15.1004 104.43 15.5842 104.364 16.2411C104.303 16.898 104.211 17.4123 104.089 17.784C103.972 18.1557 103.794 18.6191 103.555 19.1639C103.315 19.7088 103.025 20.1569 102.679 20.5032C102.332 20.8494 101.895 21.1855 101.365 21.5165C100.835 21.8424 100.224 22.0919 99.5318 22.2549C100.535 22.4942 101.39 22.9015 102.103 23.4871C102.816 24.0727 103.351 24.6838 103.718 25.3305C104.084 25.9772 104.369 26.7766 104.578 27.7238C104.787 28.6709 104.909 29.4653 104.95 30.1018C104.985 30.7383 105.006 31.5072 105.006 32.3983C105.006 34.6949 104.848 36.6655 104.527 38.3052C104.206 39.9448 103.656 41.4113 102.872 42.6945C102.088 43.9778 100.998 44.9351 99.6031 45.5665C98.2079 46.1979 96.4817 46.5085 94.4194 46.5085H81.3734L81.3785 46.5136ZM90.7836 19.3574H92.7542C93.2278 19.3574 93.6148 19.2556 93.9153 19.057C94.2157 18.8584 94.4295 18.5682 94.5568 18.1964C94.6841 17.8247 94.7656 17.4836 94.8013 17.1831C94.8369 16.8827 94.8573 16.5211 94.8573 16.1036V11.7804C94.8573 10.3953 94.1749 9.70282 92.8052 9.70282H90.7836V19.3574ZM90.7836 38.7736C91.2215 38.8093 91.5423 38.8296 91.7409 38.8296C94.2412 38.8296 95.4887 37.7552 95.4887 35.6012V30.1578C95.4887 28.7727 95.2545 27.7543 94.7911 27.1076C94.3277 26.4609 93.5842 26.135 92.5607 26.135H90.7836V38.7736Z" fill="#FEFEFE"/>
<path d="M129.871 2.94561V11.3425H124.152V46.5136H114.523V11.3425H108.805V2.94561H129.871Z" fill="#FEFEFE"/>
<path d="M149.613 46.5136L144.307 15.0903V46.5136H135.064V2.94561H149.725L153.773 25.6717L157.796 2.94561H172.593V46.5136H163.239V15.0903L158.259 46.5136H149.613Z" fill="#FEFEFE"/>
<path d="M81.4447 61.2043V50.1137H84.7648C85.6304 50.1137 86.2771 50.3072 86.6947 50.6891C87.1122 51.071 87.321 51.7279 87.321 52.6496V53.1282C87.321 53.2097 87.3108 53.3319 87.2955 53.4949C87.2802 53.6578 87.2548 53.7953 87.2242 53.887C87.1937 53.9786 87.1479 54.1008 87.0867 54.2383C87.0256 54.3758 86.9544 54.4929 86.8627 54.5795C86.771 54.6661 86.6641 54.7526 86.5266 54.8392C86.3891 54.9258 86.2364 54.9869 86.0581 55.0276C86.3127 55.0887 86.5317 55.1906 86.715 55.3433C86.8984 55.4961 87.0307 55.6488 87.1275 55.8118C87.2242 55.9747 87.2955 56.1784 87.3464 56.4228C87.3974 56.6673 87.433 56.8658 87.4381 57.0288C87.4432 57.1917 87.4534 57.3852 87.4534 57.6144C87.4534 58.2 87.4126 58.699 87.3311 59.1166C87.2497 59.5341 87.1071 59.9058 86.9085 60.2317C86.7099 60.5576 86.4299 60.802 86.0785 60.965C85.7272 61.1279 85.2841 61.2043 84.7597 61.2043H81.4396H81.4447ZM84.337 54.2943C84.4592 54.2943 84.556 54.2689 84.6323 54.218C84.7087 54.167 84.7648 54.0958 84.7953 53.999C84.8259 53.9023 84.8462 53.8157 84.8564 53.7393C84.8666 53.6629 84.8717 53.5713 84.8717 53.4643V52.3644C84.8717 52.0131 84.6985 51.8349 84.3472 51.8349H83.8329V54.2943H84.337ZM83.838 56.0206V59.2388C83.95 59.2489 84.0315 59.254 84.0824 59.254C84.7189 59.254 85.0346 58.9791 85.0346 58.4342V57.0492C85.0346 56.6978 84.9735 56.4381 84.8564 56.2752C84.7393 56.1122 84.5509 56.0257 84.2912 56.0257H83.838V56.0206Z" fill="#FEFEFE"/>
<path d="M88.8944 61.2043V50.1137H93.793V52.2626H91.3845V54.4267H93.6963V56.5094H91.3845V59.0351H93.9509V61.1992H88.8893L88.8944 61.2043Z" fill="#FEFEFE"/>
<path d="M98.9106 50.1137H104.273V52.2524H102.816V61.2043H100.367V52.2524H98.9106V50.1137Z" fill="#FEFEFE"/>
<path d="M108.031 56.1733V61.2043H105.591V50.1137H108.031V54.0754H109.186V50.1137H111.626V61.2043H109.186V56.1733H108.031Z" fill="#FEFEFE"/>
<path d="M113.403 61.2043V50.1137H118.301V52.2626H115.893V54.4267H118.205V56.5094H115.893V59.0351H118.459V61.1992H113.398L113.403 61.2043Z" fill="#FEFEFE"/>
<path d="M129.789 61.2043H127.589L126.24 53.2046V61.2043H123.887V50.1137H127.62L128.648 55.8984L129.672 50.1137H133.44V61.2043H131.057V53.2046L129.789 61.2043Z" fill="#FEFEFE"/>
<path d="M135.217 61.2043V50.1137H137.585V61.2043H135.217Z" fill="#FEFEFE"/>
<path d="M141.847 56.1581V61.2043H139.367V50.1137H143.125C143.512 50.1137 143.838 50.1646 144.113 50.2716C144.388 50.3785 144.602 50.5109 144.76 50.684C144.918 50.8572 145.04 51.0761 145.132 51.3613C145.223 51.6464 145.279 51.9214 145.31 52.2015C145.34 52.4816 145.351 52.8227 145.351 53.2199C145.351 53.4287 145.351 53.6018 145.34 53.7291C145.33 53.8564 145.31 54.0296 145.264 54.2281C145.218 54.4267 145.157 54.5999 145.081 54.7323C145.004 54.8647 144.882 54.9971 144.724 55.1295C144.566 55.2618 144.368 55.3586 144.144 55.4299C144.373 55.4706 144.561 55.547 144.709 55.6641C144.857 55.7812 144.963 55.9187 145.03 56.0868C145.096 56.2548 145.137 56.4076 145.162 56.5501C145.188 56.6927 145.198 56.8506 145.198 57.0288C145.198 58.862 145.188 60.2521 145.172 61.2043H142.779V56.8811C142.779 56.708 142.764 56.5705 142.728 56.4687C142.692 56.3668 142.626 56.2955 142.535 56.2497C142.443 56.2039 142.346 56.1784 142.26 56.1682C142.173 56.158 142.036 56.153 141.857 56.153L141.847 56.1581ZM141.862 54.2383H142.473C142.799 54.2383 142.962 53.8972 142.962 53.2199C142.962 52.7718 142.901 52.4816 142.769 52.3543C142.636 52.227 142.382 52.1658 141.995 52.1658H141.862V54.2383Z" fill="#FEFEFE"/>
<path d="M151.497 50.1137L152.724 61.2043H150.356L150.183 59.5341H148.946L148.793 61.2043H146.41L147.662 50.1137H151.497ZM149.664 52.1964H149.439L149.114 57.5176H149.989L149.664 52.1964Z" fill="#FEFEFE"/>
<path d="M159.96 56.4279V58.5259C159.96 59.4934 159.685 60.2012 159.14 60.6544C158.595 61.1076 157.826 61.3316 156.843 61.3316C155.973 61.3316 155.26 61.0821 154.715 60.5831C154.17 60.0841 153.895 59.3763 153.895 58.4546V53.3116C153.895 52.2117 154.14 51.3868 154.623 50.8419C155.107 50.2971 155.871 50.0221 156.905 50.0221C157.327 50.0221 157.714 50.073 158.076 50.1799C158.437 50.2869 158.748 50.4396 159.028 50.6433C159.308 50.847 159.522 51.1169 159.68 51.4479C159.838 51.7788 159.914 52.1608 159.914 52.5936V54.549H157.49V53.2607C157.49 52.5987 157.297 52.2626 156.905 52.2626C156.67 52.2626 156.518 52.3339 156.446 52.4816C156.375 52.6292 156.334 52.8329 156.334 53.0926V58.3324C156.334 58.5615 156.385 58.755 156.492 58.9231C156.599 59.0911 156.736 59.1726 156.905 59.1726C157.062 59.1726 157.2 59.1115 157.317 58.9893C157.434 58.867 157.49 58.6481 157.49 58.3324V56.4228H159.97L159.96 56.4279Z" fill="#FEFEFE"/>
<path d="M161.528 61.2043V50.1137H163.977V59.0402H166.498V61.2043H161.528Z" fill="#FEFEFE"/>
<path d="M167.73 61.2043V50.1137H172.629V52.2626H170.22V54.4267H172.532V56.5094H170.22V59.0351H172.787V61.1992H167.725L167.73 61.2043Z" fill="#FEFEFE"/>
<path d="M7.50733 24.5581H7.53114C8.20984 24.5581 8.80519 25.0224 8.97188 25.6833L10.9782 33.6728H13.2108C13.8954 33.6728 14.4908 34.1372 14.6574 34.804L15.1397 36.7448L17.9854 19.4262C18.1045 18.7177 18.7118 18.1879 19.4321 18.1819C20.1465 18.1819 20.7776 18.676 20.9145 19.3845L23.7305 33.6728H25.7666C26.4929 33.6728 27.1181 34.2027 27.2371 34.9171L27.9396 39.1619L29.8031 31.7141C29.9698 31.0533 30.5651 30.5889 31.2498 30.5889H32.8393L33.9407 24.3318C34.0598 23.6412 34.6492 23.1292 35.3517 23.1054C36.0364 23.0876 36.6793 23.546 36.852 24.2247L39.2691 33.6728H57.2903C57.9987 33.6728 58.606 34.167 58.7489 34.8635L60.523 43.4722L64.2737 12.8297C64.363 12.0915 64.9881 11.5319 65.7382 11.52H65.7561C66.4943 11.52 67.1254 12.0617 67.2266 12.8L69.7568 30.4639C71.7155 26.4156 72.9181 22.3731 72.9181 18.551C72.9181 8.30509 64.613 0 54.3671 0C45.8001 0 38.5904 4.3758 36.4591 12.2642C34.3277 4.36985 27.1181 0 18.551 0C8.30509 0 0 8.30509 0 18.551C0 23.1947 1.77413 28.1361 4.53654 32.9882L6.08445 25.7428C6.22733 25.0641 6.82268 24.5759 7.51328 24.564L7.50733 24.5581Z" fill="#FEFEFE"/>
<path d="M63.9522 39.8287C65.1726 38.1737 66.3157 36.4948 67.3516 34.798L65.8513 24.308L63.9522 39.8287Z" fill="#FEFEFE"/>
<path d="M38.1022 36.6496C37.4235 36.6496 36.8282 36.1912 36.6615 35.5303L35.6672 31.6487L35.5482 32.3333C35.4232 33.0477 34.804 33.5657 34.0836 33.5657H32.4047L29.0827 46.8538C28.9101 47.5385 28.2849 47.9909 27.5765 47.979C26.874 47.9493 26.2846 47.4313 26.1655 46.7347L24.4985 36.6496H22.5041C21.7957 36.6496 21.1825 36.1495 21.0455 35.447L19.5869 28.0409L16.9019 44.3772C16.7888 45.0737 16.1994 45.5976 15.4909 45.6215C14.7825 45.6453 14.1574 45.1749 13.9847 44.4903L12.0439 36.6436H9.81132C9.12667 36.6436 8.53132 36.1792 8.37058 35.5184L7.64426 32.6191L6.78696 36.6258C16.8781 51.6761 34.8159 65 36.4412 65C38.2272 65 48.8482 57.2129 58.1714 46.8717L56.0638 36.6496H38.0963H38.1022Z" fill="#FEFEFE"/>
</svg>
