<svg width="416" height="65" viewBox="0 0 416 65" fill="none" xmlns="http://www.w3.org/2000/svg">
<path d="M79.8409 30.2536V0.955814C79.8409 0.429424 79.4082 0 78.8779 0H55.6295C58.4024 3.83711 59.8958 8.44072 59.8958 13.1598V27.8479C63.6131 28.462 79.8409 30.2536 79.8409 30.2536Z" fill="#FBFBFB"/>
<path d="M59.8958 37.1382V48.511C59.8958 49.0097 59.2445 49.2129 58.9607 48.7973L52.1727 38.976C51.0422 39.3869 50.0745 39.8487 49.2603 40.3797C46.7805 41.9958 45.3569 44.3599 44.0309 49.7023L49.5673 57.7183C52.7124 62.2757 57.9232 65 63.4875 65H78.8779C79.4082 65 79.8409 64.5706 79.8409 64.0442V34.3031C79.8409 34.3031 63.6178 36.5287 59.8958 37.1382Z" fill="#FBFBFB"/>
<path d="M0 34.7464V64.0442C0 64.5706 0.432679 65 0.96306 65H24.2114C21.4386 61.1629 19.9451 56.5593 19.9451 51.8402V37.1521C16.2278 36.538 0 34.7464 0 34.7464Z" fill="#FBFBFB"/>
<path d="M19.9451 27.8618V16.489C19.9451 15.9903 20.5965 15.7871 20.8803 16.2027L27.6682 26.024C28.7987 25.6131 29.7665 25.1513 30.5806 24.6203C33.0604 23.0042 34.4841 20.64 35.81 15.2976L30.2736 7.28174C27.1285 2.7243 21.9178 0 16.3534 0H0.96306C0.432679 0 0 0.429424 0 0.955814V30.6969C0 30.6969 16.2231 28.4713 19.9451 27.8618Z" fill="#FBFBFB"/>
<path d="M59.8958 30.84C44.9847 28.4574 42.6305 24.8512 39.9181 10.2092C39.3133 13.483 38.7225 16.2073 38.0153 18.4883C36.3869 23.7153 34.1026 26.6243 29.3989 28.5267C26.9703 29.5102 23.8997 30.2259 19.9405 30.8539C16.3115 31.4311 11.9475 31.9344 6.64372 32.5023C11.9429 33.0795 16.3115 33.5828 19.9405 34.1646C34.8516 36.5472 37.2057 40.1534 39.9181 54.7954C40.523 51.5216 41.1138 48.7973 41.821 46.5163C43.4494 41.2893 45.7337 38.3803 50.4374 36.4779C52.8659 35.4944 55.9366 34.7787 59.8958 34.1507C63.5247 33.5736 67.8887 33.0703 73.1926 32.5023C67.8934 31.9251 63.5247 31.4218 59.8958 30.84Z" fill="#6C00FF"/>
<path d="M131.367 7.79889L151.763 56.5131H138.467L136.657 54.4399C134.242 51.7248 132.214 49.5223 130.567 47.8415C128.92 46.1608 127.096 44.7201 125.1 43.5242C123.104 42.3283 121.108 41.728 119.112 41.728C117.535 41.728 116.302 42.0974 115.423 42.8316C114.539 43.5704 113.823 44.697 113.264 46.2162L109.156 56.5131H95.8593L116.256 7.79889H131.367ZM126.393 35.7114C128.692 37.7847 131.023 40.412 133.391 43.5888L123.783 19.3379L118.977 31.5696C121.625 32.2622 124.095 33.6428 126.393 35.7161V35.7114Z" fill="#6C00FF"/>
<path d="M154.55 7.79889H167.358V56.5131H154.55V7.79889Z" fill="#6C00FF"/>
<path d="M177.598 37.5076C182.563 35.6191 189.434 34.6725 198.204 34.6725H202.103C202.196 33.9383 202.243 33.4304 202.243 33.1534C202.243 31.2648 201.708 29.778 200.642 28.6975C199.572 27.617 198.251 27.0722 196.674 27.0722C195.562 27.0722 194.445 27.3815 193.333 28.0049C192.221 28.6283 191.267 29.561 190.476 30.8031H177.459C178.99 26.749 181.427 24.02 184.768 22.6163C188.108 21.2126 192.217 20.5108 197.092 20.5108C203.959 20.5108 208.835 21.9745 211.71 24.8973C214.586 27.8248 216.028 32.3268 216.028 38.4034V56.5085H203.22V46.9042C201.549 50.2195 199.065 52.7314 195.771 54.4352C192.477 56.1391 188.969 56.9933 185.256 56.9933C182.563 56.9933 180.069 56.5778 177.771 55.7512C175.472 54.9201 173.63 53.7011 172.234 52.0896C170.843 50.4781 170.145 48.5665 170.145 46.3547C170.145 42.3467 172.63 39.4008 177.594 37.5123L177.598 37.5076ZM194.654 42.2775C190.663 42.2775 187.718 42.5314 185.815 43.0394C183.912 43.5473 182.958 44.4661 182.958 45.8052C182.958 46.9088 183.586 47.8092 184.838 48.5018C186.089 49.1944 187.643 49.5361 189.504 49.5361C191.965 49.5361 194.375 48.9497 196.743 47.7723C199.111 46.5994 201.014 44.8125 202.452 42.416L200.084 42.3467C198.786 42.3006 196.976 42.2775 194.654 42.2775Z" fill="#6C00FF"/>
<path d="M218.81 7.79889H233.498L256.193 39.7194V7.79889H269.001V56.5131H254.453L231.618 24.5926V56.5131H218.81V7.79889Z" fill="#FBFBFB"/>
<path d="M283.242 54.8185C279.646 53.2301 276.836 51.0322 274.816 48.2201C272.797 45.4127 271.788 42.2313 271.788 38.6851C271.788 35.1389 272.797 31.9621 274.816 29.15C276.836 26.3426 279.655 24.1401 283.275 22.5517C286.894 20.9633 291.002 20.1691 295.599 20.1691C300.196 20.1691 304.359 20.9633 307.956 22.5517C311.552 24.1401 314.348 26.3426 316.344 29.15C318.34 31.9621 319.34 35.1389 319.34 38.6851C319.34 42.2313 318.317 45.4127 316.279 48.2201C314.237 51.0322 311.417 53.2301 307.821 54.8185C304.225 56.4069 300.13 57.2011 295.534 57.2011C290.937 57.2011 286.843 56.4069 283.247 54.8185H283.242ZM303.327 46.5625C305.276 44.7201 306.248 42.2313 306.248 39.1007V38.2003C306.248 35.0696 305.276 32.5947 303.327 30.7708C301.377 28.9515 298.8 28.0418 295.599 28.0418C292.398 28.0418 289.681 28.9515 287.732 30.7708C285.782 32.59 284.81 35.065 284.81 38.2003V39.1007C284.81 42.2775 285.782 44.7801 287.732 46.5994C289.681 48.4187 292.305 49.3283 295.599 49.3283C298.893 49.3283 301.377 48.4095 303.327 46.5625Z" fill="#FBFBFB"/>
<path d="M328.32 20.7878L338.206 44.4892L348.093 20.7878H361.529L345.166 56.5085H331.241L314.879 20.7878H328.32Z" fill="#FBFBFB"/>
<path d="M361.04 37.5076C366.005 35.6191 372.876 34.6725 381.646 34.6725H385.545C385.638 33.9383 385.685 33.4304 385.685 33.1534C385.685 31.2648 385.15 29.778 384.084 28.6975C383.014 27.617 381.693 27.0722 380.116 27.0722C379.004 27.0722 377.887 27.3815 376.775 28.0049C375.663 28.6283 374.709 29.561 373.918 30.8031H360.901C362.432 26.749 364.869 24.02 368.21 22.6163C371.55 21.2126 375.658 20.5108 380.534 20.5108C387.401 20.5108 392.277 21.9745 395.152 24.8973C398.028 27.8248 399.47 32.3268 399.47 38.4034V56.5085H386.662V46.9042C384.991 50.2195 382.507 52.7314 379.213 54.4352C375.919 56.1391 372.411 56.9933 368.698 56.9933C366.005 56.9933 363.511 56.5778 361.213 55.7512C358.914 54.9201 357.072 53.7011 355.676 52.0896C354.285 50.4781 353.587 48.5665 353.587 46.3547C353.587 42.3467 356.072 39.4008 361.036 37.5123L361.04 37.5076ZM378.096 42.2775C374.105 42.2775 371.155 42.5314 369.257 43.0394C367.354 43.5473 366.4 44.4661 366.4 45.8052C366.4 46.9088 367.028 47.8092 368.28 48.5018C369.531 49.1944 371.085 49.5361 372.946 49.5361C375.407 49.5361 377.817 48.9497 380.185 47.7723C382.553 46.5994 384.456 44.8125 385.894 42.416L383.526 42.3467C382.228 42.3006 380.418 42.2775 378.096 42.2775Z" fill="#FBFBFB"/>
<path d="M402.098 9.03637H399.47V7.79889H406.202V9.03637H403.573V15.6717H402.098V9.03637Z" fill="#FBFBFB"/>
<path d="M414.6 15.6717L414.59 10.4539L411.985 14.7713H411.329L408.724 10.5186V15.6717H407.318V7.79889H408.533L411.683 13.0166L414.776 7.79889H415.991L416 15.6717H414.6Z" fill="#FBFBFB"/>
</svg>
