<svg width="128" height="128" viewBox="0 0 128 128" fill="none" xmlns="http://www.w3.org/2000/svg">
<path d="M29.0088 54.4697H29.0374C29.8518 54.4697 30.5662 55.0269 30.7663 55.8199L33.1738 65.4074H35.8529C36.6745 65.4074 37.3889 65.9646 37.5889 66.7648L38.1676 69.0938L41.5825 48.3114C41.7254 47.4613 42.4541 46.8254 43.3186 46.8183C44.1759 46.8183 44.9331 47.4112 45.0975 48.2614L48.4766 65.4074H50.9199C51.7915 65.4074 52.5417 66.0432 52.6846 66.9005L53.5276 71.9943L55.7637 63.057C55.9637 62.264 56.6781 61.7067 57.4997 61.7067H59.4072L60.7289 54.1982C60.8718 53.3695 61.579 52.7551 62.4221 52.7265C63.2436 52.7051 64.0152 53.2552 64.2224 54.0696L67.1229 65.4074H88.7483C89.5985 65.4074 90.3272 66.0004 90.4986 66.8362L92.6276 77.1667L97.1284 40.3957C97.2356 39.5098 97.9857 38.8382 98.8859 38.824H98.9073C99.7932 38.824 100.55 39.4741 100.672 40.36L103.708 61.5567C106.059 56.6987 107.502 51.8478 107.502 47.2612C107.502 34.9661 97.5356 25 85.2405 25C74.9601 25 66.3085 30.251 63.7509 39.717C61.1933 30.2438 52.5417 25 42.2612 25C29.9661 25 20 34.9661 20 47.2612C20 52.8337 22.129 58.7633 25.4439 64.5858L27.3013 55.8914C27.4728 55.0769 28.1872 54.4911 29.0159 54.4768L29.0088 54.4697Z" fill="#ED342F"/>
<path d="M96.7426 72.7945C98.2072 70.8084 99.5789 68.7937 100.822 66.7576L99.0216 54.1696L96.7426 72.7945Z" fill="#ED342F"/>
<path d="M65.7227 68.9795C64.9082 68.9795 64.1938 68.4294 63.9938 67.6364L62.8007 62.9784L62.6578 63.8C62.5078 64.6573 61.7648 65.2788 60.9003 65.2788H58.8857L54.8992 81.2246C54.6921 82.0462 53.9419 82.5891 53.0918 82.5748C52.2488 82.5391 51.5415 81.9176 51.3986 81.0817L49.3982 68.9795H47.0049C46.1548 68.9795 45.4189 68.3794 45.2546 67.5364L43.5043 58.649L40.2823 78.2526C40.1465 79.0885 39.4393 79.7172 38.5891 79.7457C37.739 79.7743 36.9888 79.2099 36.7816 78.3883L34.4526 68.9723H31.7736C30.952 68.9723 30.2376 68.4151 30.0447 67.6221L29.1731 64.1429L28.1443 68.9509C40.2537 87.0114 61.7791 103 63.7294 103C65.8727 103 78.6179 93.6554 89.8056 81.246L87.2766 68.9795H65.7155H65.7227Z" fill="#ED342F"/>
</svg>
