<svg width="128" height="128" viewBox="0 0 128 128" fill="none" xmlns="http://www.w3.org/2000/svg">
<path d="M85.6189 25.0122C75.2797 25.0122 66.5817 30.2611 64.0061 39.7323C61.4306 30.2611 52.7326 25.0122 42.3934 25.0122C30.0257 25.0122 20 34.9784 20 47.2665C20 53.4992 22.6924 60.2512 26.7494 66.8261C32.5644 66.7466 38.1704 66.6611 43.5367 66.5633C43.6597 66.5572 43.924 66.5389 44.1268 66.5267C44.7047 66.1295 45.2149 65.6529 45.7742 65.1213C47.606 63.3065 49.3948 61.2045 51.0545 59.1391C51.7921 58.2226 53.1383 58.0698 54.0665 58.8031C54.3738 59.0475 54.5951 59.353 54.7304 59.7013C56.2794 63.337 58.9165 69.4291 61.1908 74.6841C64.2151 65.3229 67.6083 55.87 71.1858 46.8204C71.7021 45.47 73.2266 44.7979 74.5789 45.3112C75.4641 45.6472 76.0665 46.4172 76.2263 47.2787C76.6996 49.8268 77.2528 52.4482 77.886 54.9962C78.8326 58.6075 79.6563 62.6099 81.568 65.714C83.8854 68.592 88.5571 67.4799 91.6798 66.4717C91.8335 66.4167 92.0056 66.4961 92.0609 66.6489C92.1101 66.7833 92.0547 66.9239 91.938 66.9972C88.342 69.3253 82.9634 71.1278 79.3428 67.6632C78.1749 66.4472 77.4803 65.2007 76.7857 63.9481C75.5624 61.5528 74.5482 59.1269 73.6569 56.6644C71.7021 62.7871 69.6183 69.0197 67.43 74.7636C66.3727 77.6294 65.2663 80.4769 64.1783 83.3304C63.7049 84.7908 62.0944 85.5791 60.6499 85.0291C59.8938 84.7481 59.3344 84.1492 59.0701 83.4526C57.3551 78.8576 54.1894 70.4313 51.9581 64.5408C50.3414 66.2884 48.651 67.9749 46.684 69.4353C46.309 69.6919 45.9832 69.9119 45.5161 70.1196C45.2702 70.2235 44.9936 70.2663 44.7293 70.2907C42.9897 70.419 41.2316 70.419 39.5228 70.4496C36.0928 70.4679 32.632 70.4801 29.159 70.4923C41.2316 87.8155 61.2523 103 63.9938 103C67.9525 103 108 71.4028 108 47.2543C108 34.96 97.9743 25 85.6066 25L85.6189 25.0122Z" fill="#ED342F"/>
</svg>
